<svg xmlns="http://www.w3.org/2000/svg" version="1.1" xmlns:xlink="http://www.w3.org/1999/xlink" xmlns:svgjs="http://svgjs.dev/svgjs" width="2000" height="1500" viewBox="0 0 2000 1500"><rect width="2000" height="1500" fill="#031763"></rect><g transform="matrix(0.4444444444444444,0,0,0.4444444444444444,555.5556208333335,250)"><svg viewBox="0 0 320 360" data-background-color="#031763" preserveAspectRatio="xMidYMid meet" height="2250" width="2000" xmlns="http://www.w3.org/2000/svg" xmlns:xlink="http://www.w3.org/1999/xlink"><g id="tight-bounds" transform="matrix(1,0,0,1,0.000023499999997511622,0)"><svg viewBox="0 0 320 360" height="360" width="320"><g><svg></svg></g><g><svg viewBox="0 0 320 360" height="360" width="320"><g><path transform="translate(-74.99272,-51.79039) scale(4.65793,4.65793)" d="M20.6 59.9l0.8 1-0.4-1.3c-0.1-0.6-0.8 0.1-0.4 0.3M21.5 59.3c0.3 0.5 0.6 1 0.6 1.5 0 0.7 0.6 1 1.1 1.2-0.7-0.8-1.1-3-1.7-2.7M59.9 16.9c1.7 0 3.3-0.2 5.1 0.2 4.4 1.1 8.1 3.3 10.6 6.4l7 11.2c0.3 2.8 0.9 5.9 0.8 9.3 0.7 0 0.6-1 1.4-1.2-0.8 2-1.2 4.5-1.4 7.4-0.5-1.6 0-4 0.1-5.3-0.7 1.1-1.1 0.3-1.1-0.2 0.1-0.8-0.3-0.7-0.6-1-1.1-1-1.8-2.1-2.6-3.8 0.5-1.3 0.6-3.2-1-4.2-0.5-0.3-1.1-0.8-1.4-1.6-0.4-1.1-1.1-2.4-0.9-4.1 0.1-0.5-1.5 1.1-2.4 0.4-3.9-2.7-7.8-5.8-12.5-8.4-2.5 0-4.3-0.9-5.2-2-0.8-1-0.2-2.3 1-2.4 0.7 0 1.5-0.2 2.1 0.2 0.1-0.4 0.5-0.9 1-0.9M50 14.6l0.2 0.1c1 0.2 1.5 1.6 2.6 1.1 0 0.7 0.1 1.4-0.1 1.9-0.3 0.8-1.2 0.8-1.9 0.8-6.7-0.4-10.6 2.4-14.7 4.8-1.1 0.7-2.3 1.2-3.2 2.1-4.3 4-9 7.7-10.1 15.1l-0.9 8.2c-0.1 0.9-1.1 1.8-0.9 2.9l0.7 4.9c-0.7-0.7-1.1 0.2-0.9 0.6 0.1 0.3 0.5 1.3 1.1 0.4 0.8 1.5 1.6 4.4 2.7 5.7 3.4 4 7.8 7.6 11.4 11.2 0.9-0.2 1.6-0.2 1.8-0.8 0.3 0.6-0.3 1.2-0.8 1.3 1.6 1 3.4 1.9 5.8 2.1 3.1 0.2 6 0.7 8.7 1.4 1.4-0.4 2.8-0.6 4.3-0.7 0.5 0 0.8-0.8 1.4-1l0.1-1c0.6 0.9 0.5-0.3 0.1-0.9 0.7 0.6 0.9 1.1 1.2 1.5 0-0.3 0.8-1.4 0.8-0.1l0.2-1.3c0.3-0.2 0.4 1.1 0.7 0.2 0.3-0.9 0.9-0.2 1.5-0.5-0.2 0.4-0.1 1.2 0.6 0.7l0.8-0.7c0.5 1.2 1.3 0.7 1.7 0.5 4.4-2.8 8.8-6.1 13-9.4l-0.1 1.3 0.5-1.6c0.5 0.5 0.9 0.1 1.1-0.2 0.6-1 1.4-2 2.7-2.9-1.6 4.3-3.5 7.7-5.9 10.5l-1 1.2c0 0.7-0.2 1.6-1 1.7-0.4 0.1-1.2-0.2-1.8 0.4-0.3 0.4 0.7 1.2-0.1 0.6-0.7-0.5-1.4 0-2.2 0.2-0.6 0.2 0.4 0.8 0.6 1.2 0.2 0.4 0.4 0.8 0.3 1.3l-1.1-1.2c-1.3 0.7-2.1 2-3.2 3-0.5 0.4-0.3 1.1-0.3 1.7-0.7 0-1.5-0.2-1.9 0.2-0.3 0.4-0.2 1-0.2 1.6-1-0.1-1.1-1.6-2-1.3-0.9 0.2-1.9 0.3-2.7 0.8 0.6 1.2-1 0.5-0.8 0.7-1.5-0.9-2.8-1.6-4.4-1-3.4-1.1-7.6-0.6-10.7-0.2 0-0.5 0.1-1-0.1-1.1-0.2 0.5-0.8 0.3-0.7 0.3-1.9-1.3-3.8-2.1-5.8-3.2-1.8 0.2-3.5-0.7-4-1.2-1.4-1.3-3-0.6-4.3-0.9-2.8-0.7-3.8-3.6-4.1-5.6-0.2-1-1-1.4-1.3-1.3-1.3-4.2-3.3-8-4.9-11.9-0.4-1-0.3-2-0.3-3.1 0.5 0.2 1 0.1 0.9-0.6-0.5-3.3-1.7-5.8-3-8.2 0.7-3.4 0.8-7.4 2.4-10.4 1.4-2.7 4-4.1 5.8-6.4 0.6-0.8 0.6-1.9 1.2-2.6 2-2 4-4.1 6.2-5.9 1-0.8 2.2 0 3.7-0.3 0.5-1.8 2.5-3.4 4.4-2.9 0.8 0.2 2.4-1.9 2.9-2.1 0.8-0.3 0.4 0.8 0.4 1.5 1.9-1.5 4.5-2.3 6.9-3.2" fill="#ffffff" fill-rule="nonzero" stroke="none" stroke-width="1" stroke-linecap="butt" stroke-linejoin="miter" stroke-miterlimit="10" stroke-dasharray="" stroke-dashoffset="0" font-family="none" font-weight="none" font-size="none" text-anchor="none" style="mix-blend-mode: normal" data-fill-palette-color="tertiary"></path></g><g transform="matrix(1,0,0,1,137.33054562979908,90)"><svg viewBox="0 0 45.33890874040188 180" height="180" width="45.33890874040188"><g><svg viewBox="0 0 45.33890874040188 180" height="180" width="45.33890874040188"><g><svg viewBox="0 0 105.10096418511068 417.2613342248748" height="180" width="45.33890874040188"><g transform="matrix(1,0,0,1,0,89.11576708348406)"><svg viewBox="0 0 105.10096418511068 328.14556714139076" height="328.14556714139076" width="105.10096418511068"><g id="textblocktransform"><svg viewBox="0 0 105.10096418511068 328.14556714139076" height="328.14556714139076" width="105.10096418511068" id="textblock"><g><svg viewBox="0 0 105.10096418511068 178.88760000000002" height="178.88760000000002" width="105.10096418511068"><g transform="matrix(1,0,0,1,0,0)"><svg width="105.10096418511068" viewBox="2 -24.35 14.600000000000001 24.85" height="178.88760000000002" data-palette-color="#ffffff"><path d="M9.5 0.5Q5.35 0.5 3.15-2.7L3.15-2.7 2.7 0 2.05 0 2.05-8.95 2.95-8.95Q2.95-4.65 4.35-2.58 5.75-0.5 8.6-0.5L8.6-0.5Q10.95-0.5 12.1-2.13 13.25-3.75 13.25-6.3L13.25-6.3Q13.25-8.35 11.83-9.55 10.4-10.75 7.65-12.05L7.65-12.05Q5.75-12.95 4.65-13.65 3.55-14.35 2.78-15.4 2-16.45 2-17.95L2-17.95Q2-21 3.93-22.68 5.85-24.35 8.8-24.35L8.8-24.35Q10.55-24.35 12.13-23.53 13.7-22.7 13.95-21.8L13.95-21.8 14.3-24.35 14.95-24.35 14.95-17.8 14.2-17.8Q14.2-20 12.85-21.75 11.5-23.5 9.3-23.5L9.3-23.5Q5.25-23.5 5.25-19.05L5.25-19.05Q5.25-17.5 6.4-16.55 7.55-15.6 10.05-14.3L10.05-14.3Q12.15-13.2 13.45-12.33 14.75-11.45 15.68-10.05 16.6-8.65 16.6-6.65L16.6-6.65Q16.6-4.95 15.7-3.3 14.8-1.65 13.18-0.58 11.55 0.5 9.5 0.5L9.5 0.5Z" opacity="1" transform="matrix(1,0,0,1,0,0)" fill="#ffffff" class="wordmark-text-0" data-fill-palette-color="primary" id="text-0"></path></svg></g></svg></g><g transform="matrix(1,0,0,1,0,221.11866905760002)"><svg viewBox="0 0 105.10096418511068 107.02689808379074" height="107.02689808379074" width="105.10096418511068"><g transform="matrix(1,0,0,1,0,0)"><svg width="105.10096418511068" viewBox="1 -38.9 38.2 38.9" height="107.02689808379074" data-palette-color="#ffffff"><path d="M1 0L1-8.2 3.5-8.2 3.5-30.7 1-30.7 1-38.9 23.95-38.9Q30.4-38.9 33.8-36.25 37.2-33.6 37.2-27.65L37.2-27.65Q37.2-24.3 35.85-21.85 34.5-19.4 32-18.45L32-18.45 32.05-17.95Q36.85-17.2 36.85-12.05L36.85-12.05 36.85-8.2 39.2-8.2 39.2 0 23.35 0 23.35-11.75Q23.35-13.7 22.78-14.7 22.2-15.7 20.98-16.05 19.75-16.4 17.5-16.4L17.5-16.4 17.5-8.2 20.8-8.2 20.8 0 1 0ZM17.5-22.5L20.2-22.5Q21.65-22.5 22.38-23.28 23.1-24.05 23.1-25.7L23.1-25.7 23.1-27.5Q23.1-29.15 22.38-29.93 21.65-30.7 20.2-30.7L20.2-30.7 17.5-30.7 17.5-22.5Z" opacity="1" transform="matrix(1,0,0,1,0,0)" fill="#ffffff" class="slogan-text-1" data-fill-palette-color="secondary" id="text-1"></path></svg></g></svg></g></svg></g></svg></g><g transform="matrix(1,0,0,1,20.07428415935614,0)"><svg viewBox="0 0 64.9523958663984 46.884698025884056" height="46.884698025884056" width="64.9523958663984"><g><svg xmlns="http://www.w3.org/2000/svg" xmlns:xlink="http://www.w3.org/1999/xlink" version="1.1" x="0" y="0" viewBox="10 22.257 89.33800000000002 64.48699999999995" style="enable-background:new 0 0 109 109;" xml:space="preserve" height="46.884698025884056" width="64.9523958663984" class="icon-icon-0" data-fill-palette-color="accent" id="icon-0"><path class="" d="M25.071 67.324c0 0.014-0.008 0.025-0.018 0.034h0l-0.105 0.085h-0.365-0.365l-0.104-0.085 0 0c-0.011-0.008-0.018-0.02-0.018-0.034v-0.427c0-0.026 0.021-0.047 0.047-0.047h0.881c0.025 0 0.046 0.021 0.046 0.047V67.324zM25.071 65.519c0-0.025-0.021-0.044-0.046-0.044h-0.881c-0.026 0-0.047 0.02-0.047 0.044v0.43c0 0.013 0.007 0.024 0.018 0.033l0 0 0.104 0.084h0.365 0.365l0.105-0.084h0c0.01-0.008 0.018-0.02 0.018-0.033V65.519zM24.583 60.259c0.191 0 0.347-0.155 0.347-0.347 0-0.191-0.155-0.344-0.347-0.344-0.19 0-0.345 0.153-0.345 0.344C24.238 60.104 24.393 60.259 24.583 60.259zM25.464 72.281c0.035 0 0.062-0.027 0.062-0.062v-1.388c0-0.035-0.027-0.062-0.062-0.062h-1.763c-0.035 0-0.062 0.027-0.062 0.062v1.388c0 0.035 0.026 0.062 0.062 0.062H25.464zM10 82.978v0.056l0 0c0 0.601 0.182 1.156 0.49 1.623 0.038-0.087 0.108-0.159 0.205-0.193 0.186-0.069 0.391 0.026 0.459 0.213l0.334 0.919c0.141 0.081 0.291 0.149 0.445 0.206l-0.225-0.688c-0.061-0.188 0.044-0.39 0.231-0.451 0.188-0.062 0.39 0.04 0.451 0.229l0.366 1.127c0.154 0.04 0.307 0.078 0.462 0.112l-0.246-0.857c-0.055-0.19 0.055-0.388 0.246-0.442 0.191-0.055 0.389 0.054 0.443 0.246l0.35 1.216c0.147 0.027 0.293 0.053 0.44 0.075l-0.239-0.954c-0.049-0.192 0.069-0.386 0.261-0.433 0.192-0.049 0.385 0.067 0.434 0.261l0.31 1.241c0.158 0.021 0.314 0.04 0.468 0.058l-0.217-1.016c-0.041-0.194 0.083-0.383 0.276-0.425 0.193-0.041 0.383 0.081 0.425 0.276l0.264 1.24c0.153 0.014 0.301 0.026 0.445 0.038l-0.184-1.036c-0.035-0.194 0.097-0.379 0.292-0.415 0.194-0.034 0.38 0.095 0.415 0.291l0.213 1.208c0.152 0.008 0.289 0.015 0.417 0.02l-0.146-1.042c-0.027-0.197 0.109-0.377 0.306-0.403 0.194-0.029 0.376 0.105 0.404 0.305l0.163 1.16c0.055 0 0.093 0.001 0.093 0.001h0.309l-0.106-1.016c-0.021-0.197 0.123-0.372 0.319-0.394 0.196-0.02 0.373 0.122 0.394 0.319l0.114 1.091h0.389l-0.07-0.992c-0.013-0.198 0.136-0.369 0.333-0.383 0.197-0.013 0.369 0.135 0.382 0.333l0.073 1.042h0.324l-0.035-0.973c-0.006-0.199 0.147-0.364 0.347-0.37 0.197-0.008 0.363 0.146 0.37 0.344l0.035 0.999h0.372v-0.971c0-0.198 0.16-0.357 0.358-0.357 0.198 0 0.358 0.159 0.358 0.357v0.971h0.371l0.035-0.999c0.007-0.198 0.173-0.353 0.37-0.344 0.198 0.006 0.353 0.171 0.346 0.37l-0.034 0.973h0.325l0.073-1.042c0.014-0.198 0.185-0.345 0.383-0.333 0.197 0.014 0.346 0.185 0.333 0.383l-0.07 0.992h0.388l0.115-1.091c0.021-0.197 0.197-0.338 0.394-0.319 0.196 0.021 0.34 0.197 0.319 0.394l-0.106 1.016h0.337c0.013 0 0.039-0.001 0.066-0.001l0.164-1.16c0.027-0.199 0.209-0.334 0.405-0.305 0.195 0.026 0.333 0.206 0.305 0.403l-0.148 1.042c0.127-0.005 0.268-0.012 0.418-0.02l0.214-1.208c0.034-0.196 0.22-0.324 0.415-0.291 0.195 0.035 0.326 0.22 0.292 0.415l-0.183 1.036c0.143-0.009 0.291-0.023 0.445-0.037l0.264-1.241c0.042-0.195 0.231-0.317 0.424-0.276 0.194 0.042 0.318 0.231 0.277 0.425l-0.216 1.016c0.153-0.018 0.31-0.038 0.468-0.058l0.31-1.241c0.047-0.194 0.241-0.311 0.434-0.261 0.192 0.047 0.309 0.241 0.261 0.433l-0.238 0.956c0.146-0.023 0.292-0.048 0.44-0.075l0.35-1.217c0.055-0.192 0.253-0.301 0.443-0.246 0.189 0.054 0.301 0.252 0.245 0.442l-0.245 0.857c0.154-0.035 0.309-0.072 0.461-0.113l0.366-1.126c0.062-0.19 0.263-0.292 0.452-0.229 0.188 0.061 0.291 0.262 0.229 0.451L33.588 85.8c0.155-0.058 0.304-0.125 0.444-0.206l0.335-0.918c0.067-0.187 0.272-0.282 0.459-0.213 0.095 0.034 0.167 0.106 0.205 0.192 0.308-0.465 0.489-1.021 0.489-1.621l0 0v-0.056c-3.744 0.676-8.087 1.062-12.76 1.062C18.087 84.041 13.745 83.654 10 82.978zM25.071 68.272c0-0.026-0.021-0.044-0.046-0.044h-0.881c-0.026 0-0.047 0.019-0.047 0.044V68.7c0 0.014 0.007 0.026 0.018 0.034l0 0 0.104 0.084h0.365 0.365l0.105-0.084h0c0.01-0.008 0.018-0.02 0.018-0.034V68.272zM25.466 63.75c0.033 0 0.06-0.028 0.06-0.062v-0.572c0-0.035-0.027-0.062-0.06-0.062h-1.765c-0.034 0-0.062 0.027-0.062 0.062v0.572c0 0.034 0.028 0.062 0.062 0.062H25.466zM25.466 62.324c0.033 0 0.06-0.028 0.06-0.062v-0.574c0-0.033-0.027-0.062-0.06-0.062h-1.765c-0.034 0-0.062 0.029-0.062 0.062v0.574c0 0.034 0.028 0.062 0.062 0.062H25.466zM21.19 60.259c0.191 0 0.345-0.155 0.345-0.347 0-0.191-0.154-0.344-0.345-0.344-0.19 0-0.345 0.153-0.345 0.344C20.845 60.104 21 60.259 21.19 60.259zM15.079 56.553c-0.46 0-0.833 0.404-0.833 0.9 0 0.499 0.372 0.904 0.833 0.904 0.459 0 0.832-0.405 0.832-0.904C15.911 56.958 15.538 56.553 15.079 56.553zM21.677 68.272c0-0.026-0.02-0.044-0.045-0.044h-0.883c-0.024 0-0.045 0.019-0.045 0.044V68.7c0 0.014 0.007 0.026 0.017 0.034h-0.001l0.105 0.084h0.365 0.366l0.105-0.084h-0.001c0.011-0.008 0.018-0.02 0.018-0.034V68.272zM24.583 73.281c-0.527 0-0.955 0.427-0.955 0.954 0 0.528 0.427 0.957 0.955 0.957 0.528 0 0.955-0.429 0.955-0.957C25.538 73.708 25.111 73.281 24.583 73.281zM24.765 76.798v1.649c0 0.055-0.029 0.1-0.068 0.131H24.7l-0.406 0.735h-1.41-1.406l-0.405-0.735h0.003c-0.04-0.032-0.067-0.076-0.067-0.131v-1.649c0-0.098 0.079-0.177 0.178-0.177h3.4C24.684 76.621 24.765 76.7 24.765 76.798zM22.152 77.403c0-0.086-0.069-0.154-0.153-0.154-0.085 0-0.155 0.068-0.155 0.154v0.541c0 0.087 0.07 0.155 0.155 0.155 0.084 0 0.153-0.068 0.153-0.155V77.403zM23.047 78.134c0-0.085-0.069-0.155-0.154-0.155-0.084 0-0.153 0.069-0.153 0.155v0.542c0 0.084 0.069 0.154 0.153 0.154 0.085 0 0.154-0.07 0.154-0.154V78.134zM24.015 77.403c0-0.086-0.068-0.154-0.153-0.154s-0.154 0.068-0.154 0.154v0.541c0 0.087 0.069 0.155 0.154 0.155s0.153-0.068 0.153-0.155V77.403zM22.072 62.324c0.035 0 0.063-0.028 0.063-0.062v-0.574c0-0.033-0.028-0.062-0.063-0.062h-1.764c-0.035 0-0.061 0.029-0.061 0.062v0.574c0 0.034 0.026 0.062 0.061 0.062H22.072zM21.914 74.498l0.105-0.085h-0.001c0.01-0.008 0.018-0.019 0.018-0.034v-0.427c0-0.026-0.021-0.047-0.045-0.047h-1.806c-0.025 0-0.046 0.021-0.046 0.047v0.427c0 0.015 0.006 0.026 0.018 0.034h-0.001l0.105 0.085h1.289H21.914zM35.644 50.203h0.003v4.728 1.143 1.459 18.25 1.458 1.143 3.939c-3.771 0.7-8.143 1.106-12.76 1.106-4.618 0-8.99-0.406-12.76-1.106v-3.939V77.24v-1.458-18.25-1.459-1.143-4.728h0.002c0.033-1.467 1.133-2.668 2.556-2.858 2.827-0.773 6.294-0.773 6.294-0.773l0.009 0.024c0.213-0.015 0.427-0.024 0.644-0.024h6.513c0.216 0 0.429 0.009 0.641 0.024l0.009-0.024c0 0 3.469 0 6.296 0.773C34.512 47.536 35.612 48.736 35.644 50.203zM17.095 57.455c0-0.715-0.535-1.294-1.195-1.294h-0.871c-0.66 0-1.196 0.58-1.196 1.294 0 0.714 0.536 1.296 1.196 1.296H15.9C16.561 58.751 17.095 58.169 17.095 57.455zM26.932 57.622c0-0.825-0.67-1.493-1.494-1.493h-5.101c-0.825 0-1.494 0.667-1.494 1.493v21.746c0 0.824 0.669 1.492 1.494 1.492h5.101c0.824 0 1.494-0.668 1.494-1.492V57.622zM21.677 66.896c0-0.026-0.02-0.047-0.045-0.047h-0.883c-0.024 0-0.045 0.021-0.045 0.047v0.427c0 0.014 0.007 0.025 0.017 0.034h-0.001l0.105 0.085h0.365 0.366l0.105-0.085h-0.001c0.011-0.008 0.018-0.02 0.018-0.034V66.896zM22.072 72.281c0.035 0 0.063-0.027 0.063-0.062v-1.388c0-0.035-0.028-0.062-0.063-0.062h-1.764c-0.035 0-0.061 0.027-0.061 0.062v1.388c0 0.035 0.026 0.062 0.061 0.062H22.072zM22.072 63.75c0.035 0 0.063-0.028 0.063-0.062v-0.572c0-0.035-0.028-0.062-0.063-0.062h-1.764c-0.035 0-0.061 0.027-0.061 0.062v0.572c0 0.034 0.026 0.062 0.061 0.062H22.072zM21.677 65.519c0-0.025-0.02-0.044-0.045-0.044h-0.883c-0.024 0-0.045 0.02-0.045 0.044v0.43c0 0.013 0.007 0.024 0.017 0.033h-0.001l0.105 0.084h0.365 0.366l0.105-0.084h-0.001c0.011-0.008 0.018-0.02 0.018-0.033V65.519zM73.693 82.21l-0.005-0.008-0.001 0.001c-0.117-0.124-0.284-0.231-0.284-0.231s-1.029-0.562-1.965-1.171c-0.936-0.607-1.03-2.62-1.03-2.62l-0.392-4.65H55.024l-0.393 4.65c0 0-0.094 2.013-1.03 2.62-0.936 0.609-1.965 1.171-1.965 1.171s-0.166 0.107-0.283 0.231l-0.002-0.001-0.003 0.008c-0.062 0.065-0.1 0.133-0.096 0.197l-0.01 0.021v0.115 0.14c0 0.116 0.094 0.211 0.21 0.211H62.52h11.068c0.117 0 0.21-0.095 0.21-0.211v-0.14-0.115l-0.01-0.021C73.792 82.343 73.754 82.275 73.693 82.21zM97.443 22.257H27.598c-1.045 0-1.895 0.849-1.895 1.896v20.921h0.442c0.149 0 0.303 0.003 0.465 0.012 0.061-0.008 0.122-0.012 0.184-0.012 0.059 0 0.627 0.002 1.472 0.052v-19.58h68.51v43.798h-59.63v3.328h60.298c1.045 0 1.894-0.849 1.894-1.894v-5.631-1.137V24.153C99.337 23.106 98.488 22.257 97.443 22.257z" fill="#ffffff" data-fill-palette-color="accent"></path></svg></g></svg></g><g></g></svg></g></svg></g></svg></g></svg></g><defs></defs></svg><rect width="320" height="360" fill="none" stroke="none" visibility="hidden"></rect></g></svg></g></svg>